<?xml version="1.0" encoding="UTF-8"?>
<svg id="Layer_1" xmlns="http://www.w3.org/2000/svg" version="1.1" viewBox="0 0 3000 3000">
  <!-- Generator: Adobe Illustrator 30.2.1, SVG Export Plug-In . SVG Version: 2.1.1 Build 1)  -->
  <defs>
    <style>
      .st0 {
        fill: #fff;
      }

      .st1 {
        fill: #0dd4a0;
      }

      .st2 {
        display: none;
      }
    </style>
  </defs>
  <g>
    <g>
      <g id="_x3C_Radial_Repeat_x3E_">
        <path class="st1" d="M659.33,1603.79c23.74,0,44.33,14.42,52.45,36.73l.04.1,64.87,178.23-43.83,15.95-64.93-178.38c-1.92-5.21-6.21-5.99-8.6-5.99s-6.71.78-8.62,6.04v.03s-64.91,178.3-64.91,178.3l-43.83-15.95,64.91-178.34c8.12-22.3,28.7-36.71,52.44-36.71Z"/>
      </g>
      <g id="_x3C_Radial_Repeat_x3E_1" data-name="_x3C_Radial_Repeat_x3E_">
        <path class="st1" d="M578.19,1564.71c14.8,18.56,16.37,43.65,3.99,63.9l-.05.09-98.9,161.85-39.8-24.32,98.98-161.98c2.87-4.75.81-8.59-.68-10.46s-4.8-4.76-10.09-2.98h-.03s-179.86,60.44-179.86,60.44l-14.85-44.21,179.91-60.44c22.49-7.56,46.6-.45,61.4,18.11Z"/>
      </g>
      <g id="_x3C_Radial_Repeat_x3E_2" data-name="_x3C_Radial_Repeat_x3E_">
        <path class="st1" d="M558.14,1476.9c-5.28,23.15-23.92,40.01-47.48,42.96h-.1s-188.2,23.6-188.2,23.6l-5.8-46.28,188.36-23.6c5.5-.71,7.22-4.72,7.75-7.06s.73-6.72-3.97-9.75l-.03-.02-159.39-102.94,25.3-39.18,159.43,102.97c19.93,12.87,29.41,36.15,24.12,59.3Z"/>
      </g>
      <g id="_x3C_Radial_Repeat_x3E_3" data-name="_x3C_Radial_Repeat_x3E_">
        <path class="st1" d="M614.3,1406.49c-21.39,10.3-46.19,6.25-63.19-10.33l-.07-.07-135.78-132.44,32.57-33.39,135.89,132.55c3.99,3.86,8.2,2.7,10.35,1.66s5.7-3.62,5.15-9.18v-.03s-18.9-188.8-18.9-188.8l46.41-4.64,18.9,188.84c2.36,23.61-9.93,45.53-31.32,55.83Z"/>
      </g>
      <g id="_x3C_Radial_Repeat_x3E_4" data-name="_x3C_Radial_Repeat_x3E_">
        <path class="st1" d="M704.37,1406.49c-21.39-10.3-33.68-32.22-31.32-55.85v-.1s18.9-188.73,18.9-188.73l46.41,4.64-18.9,188.89c-.53,5.53,3,8.09,5.15,9.13s6.39,2.2,10.39-1.7l.02-.02,135.83-132.49,32.57,33.39-135.86,132.52c-16.99,16.57-41.79,20.62-63.18,10.32Z"/>
      </g>
      <g id="_x3C_Radial_Repeat_x3E_5" data-name="_x3C_Radial_Repeat_x3E_">
        <path class="st1" d="M760.52,1476.9c-5.28-23.15,4.19-46.43,24.13-59.31l.09-.06,159.33-102.91,25.3,39.18-159.46,102.99c-4.65,3.03-4.45,7.39-3.92,9.72s2.26,6.37,7.8,7.06h.03s188.27,23.6,188.27,23.6l-5.8,46.28-188.31-23.6c-23.55-2.95-42.18-19.81-47.46-42.96Z"/>
      </g>
      <g id="_x3C_Radial_Repeat_x3E_6" data-name="_x3C_Radial_Repeat_x3E_">
        <path class="st1" d="M740.48,1564.71c14.8-18.56,38.91-25.67,61.42-18.11l.1.03,179.8,60.41-14.85,44.21-179.94-60.46c-5.27-1.74-8.55,1.12-10.05,2.99s-3.57,5.73-.66,10.5l.02.03,98.94,161.91-39.8,24.32-98.96-161.94c-12.37-20.25-10.81-45.33,3.99-63.89Z"/>
      </g>
    </g>
    <g>
      <path class="st0" d="M1278.79,1370.15h49.72v319.33h-49.72v-319.33ZM1303.88,1370.15h192.51v44.25h-192.51v-44.25ZM1317.57,1516.13h160.58v43.79h-160.58v-43.79Z"/>
      <path class="st0" d="M1545.66,1434.02h48.81v255.46h-48.81v-255.46ZM1594.47,1555.36l-6.84-37.86c0-7.91.98-17.03,2.97-27.37,1.97-10.34,6.08-20.3,12.32-29.88,6.23-9.58,15.51-17.56,27.83-23.95,12.32-6.39,28.66-9.58,49.04-9.58v49.27c-17.95,0-33.3,2.44-46.07,7.3-12.77,4.87-22.51,13-29.2,24.41-6.69,11.41-10.04,27.3-10.04,47.67Z"/>
      <path class="st0" d="M1817.54,1696.78c-26.46,0-49.43-5.7-68.88-17.11-19.47-11.41-34.6-27.29-45.39-47.67-10.8-20.37-16.19-43.64-16.19-69.8s5.4-49.87,16.19-70.25c10.79-20.37,25.92-36.34,45.39-47.9,19.46-11.55,42.43-17.33,68.88-17.33s49.42,5.78,68.88,17.33c19.46,11.56,34.59,27.53,45.39,47.9,10.79,20.38,16.2,43.79,16.2,70.25s-5.4,49.42-16.2,69.8c-10.8,20.38-25.93,36.27-45.39,47.67-19.47,11.4-42.42,17.11-68.88,17.11ZM1817.54,1652.07c16.72,0,31.02-3.72,42.88-11.18,11.86-7.45,20.98-17.94,27.37-31.48,6.39-13.53,9.58-29.27,9.58-47.22s-3.19-34.21-9.58-47.9-15.51-24.25-27.37-31.71c-11.86-7.45-26.16-11.18-42.88-11.18s-31.1,3.73-43.11,11.18c-12.02,7.46-21.21,18.02-27.6,31.71s-9.58,29.65-9.58,47.9,3.19,33.69,9.58,47.22c6.39,13.54,15.58,24.03,27.6,31.48,12.01,7.46,26.38,11.18,43.11,11.18Z"/>
      <path class="st0" d="M1982.68,1434.02h48.81v41.97c3.65-8.51,8.97-16.49,15.97-23.95,6.99-7.45,16.12-13.53,27.37-18.25,11.25-4.71,24.93-7.07,41.06-7.07s31.09,3.35,44.02,10.04c12.92,6.69,23.11,17.72,30.56,33.07,7.45,15.36,11.18,36.12,11.18,62.27v157.38h-48.81v-151.45c0-13.99-1.37-26.07-4.11-36.27-2.74-10.19-7.75-18.09-15.05-23.72-7.3-5.62-17.49-8.44-30.56-8.44-12.17,0-23.72,3.5-34.67,10.49-10.95,7-19.84,17.33-26.69,31.02s-10.26,30.72-10.26,51.09v127.28h-48.81v-255.46Z"/>
      <path class="st0" d="M2228.11,1475.99v-41.97h138.68v41.97h-138.68ZM2266.43,1689.48v-319.33h48.81v277.36h58.85v41.97h-107.66Z"/>
      <path class="st0" d="M2408.3,1345.06l54.29-11.86,12.32,55.2-54.74,12.32-11.86-55.66ZM2422.9,1434.02h49.27v255.46h-49.27v-255.46Z"/>
      <path class="st0" d="M2520.52,1434.02h48.81v255.46h-48.81v-255.46ZM2569.33,1555.36l-6.84-37.86c0-7.91.98-17.03,2.97-27.37,1.97-10.34,6.08-20.3,12.32-29.88,6.23-9.58,15.51-17.56,27.83-23.95,12.32-6.39,28.66-9.58,49.04-9.58v49.27c-17.95,0-33.3,2.44-46.08,7.3-12.77,4.87-22.51,13-29.2,24.41-6.69,11.41-10.04,27.3-10.04,47.67Z"/>
    </g>
  </g>
  <g class="st2">
    <path class="st1" d="M768,1608.26c23.73,0,44.31,14.41,52.43,36.71l.02.04,59.53,163.56-45.88,16.7-59.55-163.62c-1.38-3.78-4.32-4.57-6.55-4.57s-5.17.8-6.55,4.59l-59.55,163.6-45.88-16.7,59.54-163.58c8.12-22.32,28.7-36.73,52.43-36.73Z"/>
    <path class="st1" d="M683.36,1567.5c14.8,18.55,16.36,43.63,3.99,63.88l-.02.04-90.76,148.52-41.66-25.46,90.79-148.57c2.09-3.44.88-6.23-.51-7.97s-3.85-3.55-7.67-2.26l-165.04,55.45-15.55-46.28,165.01-55.44c22.52-7.57,46.61-.46,61.41,18.09Z"/>
    <path class="st1" d="M662.46,1475.91c-5.28,23.14-23.91,39.99-47.46,42.94h-.04s-172.71,21.65-172.71,21.65l-6.07-48.44,172.77-21.65c3.99-.51,5.42-3.2,5.91-5.36s.37-5.22-3.01-7.41l-146.25-94.46,26.49-41.01,146.23,94.45c19.96,12.89,29.42,36.16,24.14,59.29Z"/>
    <path class="st1" d="M721.03,1402.46c-21.38,10.3-46.18,6.24-63.16-10.33l-.03-.03-124.6-121.53,34.09-34.95,124.65,121.58c2.88,2.8,5.88,2.24,7.88,1.28s4.31-2.96,3.91-6.97l-17.34-173.24,48.58-4.86,17.33,173.21c2.37,23.64-9.92,45.55-31.3,55.84Z"/>
    <path class="st1" d="M814.97,1402.46c-21.38-10.3-33.67-32.21-31.31-55.82v-.04s17.34-173.19,17.34-173.19l48.58,4.86-17.34,173.25c-.39,4,1.91,5.99,3.91,6.96s5,1.53,7.89-1.29l124.64-121.57,34.09,34.95-124.62,121.55c-17.01,16.59-41.8,20.64-63.18,10.34Z"/>
    <path class="st1" d="M873.54,1475.91c-5.28-23.14,4.19-46.41,24.12-59.28l.04-.02,146.21-94.43,26.49,41.01-146.26,94.47c-3.38,2.19-3.5,5.23-3,7.4s1.93,4.86,5.93,5.37l172.75,21.65-6.07,48.44-172.73-21.65c-23.57-2.95-42.2-19.81-47.48-42.95Z"/>
    <path class="st1" d="M852.64,1567.5c14.8-18.55,38.89-25.66,61.39-18.1h.04s164.99,55.45,164.99,55.45l-15.55,46.28-165.05-55.45c-3.82-1.27-6.27.53-7.66,2.27s-2.6,4.54-.5,7.98l90.78,148.56-41.66,25.46-90.77-148.54c-12.39-20.27-10.82-45.34,3.97-63.9Z"/>
  </g>
  <g class="st2">
    <g id="_x3C_Radial_Repeat_x3E_7" data-name="_x3C_Radial_Repeat_x3E_">
      <path class="st1" d="M1500,1801.75c69.02,0,128.88,41.91,152.49,106.77l.1.28,188.6,518.18-127.42,46.38-188.76-518.61c-5.59-15.14-18.06-17.41-25.02-17.41s-19.51,2.28-25.06,17.55l-.03.09-188.67,518.37-127.42-46.38,188.72-518.49c23.6-64.83,83.45-106.74,152.47-106.74Z"/>
    </g>
    <g id="_x3C_Radial_Repeat_x3E_8" data-name="_x3C_Radial_Repeat_x3E_">
      <path class="st1" d="M1264.08,1688.14c43.04,53.97,47.59,126.89,11.6,185.79l-.16.26-287.54,470.53-115.7-70.7,287.78-470.92c8.35-13.81,2.35-24.97-1.99-30.41s-13.94-13.83-29.35-8.65l-.09.03-522.92,175.69-43.19-128.53,523.04-175.73c65.4-21.97,135.48-1.31,178.51,52.66Z"/>
    </g>
    <g id="_x3C_Radial_Repeat_x3E_9" data-name="_x3C_Radial_Repeat_x3E_">
      <path class="st1" d="M1205.81,1432.85c-15.36,67.29-69.54,116.32-138.03,124.91l-.3.04-547.15,68.57-16.86-134.54,547.61-68.62c16-2.08,20.99-13.74,22.54-20.52s2.12-19.52-11.53-28.34l-.08-.05-463.39-299.29,73.57-113.9,463.5,299.36c57.95,37.43,85.49,105.11,70.13,172.4Z"/>
    </g>
    <g id="_x3C_Radial_Repeat_x3E_10" data-name="_x3C_Radial_Repeat_x3E_">
      <path class="st1" d="M1369.08,1228.13c-62.19,29.95-134.3,18.16-183.71-30.04l-.21-.21-394.75-385.03,94.68-97.07,395.08,385.35c11.6,11.22,23.83,7.85,30.09,4.83s16.58-10.52,14.97-26.69v-.1s-54.93-548.9-54.93-548.9l134.92-13.5,54.94,549.03c6.87,68.65-28.87,132.37-91.06,162.32Z"/>
    </g>
    <g id="_x3C_Radial_Repeat_x3E_11" data-name="_x3C_Radial_Repeat_x3E_">
      <path class="st1" d="M1630.93,1228.13c-62.19-29.95-97.93-93.68-91.06-162.36l.03-.3,54.91-548.69,134.92,13.5-54.95,549.15c-1.54,16.06,8.72,23.52,14.99,26.54s18.56,6.41,30.2-4.94l.07-.07,394.9-385.18,94.68,97.07-395,385.27c-49.39,48.17-121.49,59.96-183.68,30.01Z"/>
    </g>
    <g id="_x3C_Radial_Repeat_x3E_12" data-name="_x3C_Radial_Repeat_x3E_">
      <path class="st1" d="M1794.19,1432.86c-15.36-67.29,12.18-134.97,70.16-172.42l.25-.16,463.22-299.18,73.57,113.9-463.6,299.43c-13.52,8.81-12.95,21.48-11.4,28.26,1.55,6.8,6.56,18.51,22.69,20.53h.1s547.36,68.61,547.36,68.61l-16.86,134.54-547.49-68.61c-68.45-8.58-122.63-57.6-137.99-124.9Z"/>
    </g>
    <g id="_x3C_Radial_Repeat_x3E_13" data-name="_x3C_Radial_Repeat_x3E_">
      <path class="st1" d="M1735.92,1688.14c43.04-53.97,113.12-74.63,178.55-52.65l.28.1,522.72,175.62-43.18,128.53-523.15-175.77c-15.32-5.07-24.87,3.27-29.21,8.71s-10.38,16.67-1.91,30.54l.05.08,287.65,470.71-115.7,70.7-287.71-470.82c-35.97-58.87-31.42-131.79,11.61-185.75Z"/>
    </g>
  </g>
</svg>